<?xml version="1.0" encoding="UTF-8"?> <svg xmlns="http://www.w3.org/2000/svg" viewBox="0 0 415.99 357.88"> <defs> <style>.cls-1{fill:#00a9ff;}</style> </defs> <g id="Слой_2" data-name="Слой 2"> <g id="Слой_1-2" data-name="Слой 1"> <path class="cls-1" d="M2.33,0H45.92L80.05,121.08h.44L114.83,0h42.05l-52.4,154.1H53.85Z"></path> <path class="cls-1" d="M195.4,30.38H157.54V0H274.21V30.38H236.35V154.1H195.4Z"></path> <path class="cls-1" d="M291.38,0h70.67q2.86,0,7.6.33a69.06,69.06,0,0,1,10.12,1.54A66,66,0,0,1,390.89,5.5a34.49,34.49,0,0,1,10.35,6.83Q412,22.46,412,39.63q0,8.15-2.09,13.32a40.46,40.46,0,0,1-4.29,8.25,33.83,33.83,0,0,1-9.36,8.59A47.56,47.56,0,0,1,385,75.07v.44a51.86,51.86,0,0,1,10.12,2.64A32.09,32.09,0,0,1,405.2,84.1a31.28,31.28,0,0,1,7.7,10.34q3.09,6.39,3.09,15.85a42.2,42.2,0,0,1-1.66,12.44,43,43,0,0,1-4.07,9.47,34.85,34.85,0,0,1-5.28,6.93,37.25,37.25,0,0,1-5.5,4.63,47.82,47.82,0,0,1-10.57,5.39,72.26,72.26,0,0,1-11.56,3.19,89.08,89.08,0,0,1-11.45,1.43c-3.74.22-7,.33-9.79.33H291.38Zm40.95,61h11.45a97.11,97.11,0,0,0,10.57-.66,22,22,0,0,0,10.34-3.74,14.6,14.6,0,0,0,5-5.29,14.57,14.57,0,0,0,1.43-6.6,17.08,17.08,0,0,0-1-5.83,12.27,12.27,0,0,0-3.42-5,17.67,17.67,0,0,0-7.15-3.52,49.9,49.9,0,0,0-12.88-1.32H332.33Zm0,64.06H346.2a84.31,84.31,0,0,0,11.45-.88,24.26,24.26,0,0,0,10.56-3.74q4.41-3.08,5.62-6.6a20.58,20.58,0,0,0,1.21-6.61,18.79,18.79,0,0,0-2.2-9.24,15.57,15.57,0,0,0-7.49-6.39c-1.17-.44-3.23-1-6.16-1.76s-7.71-1.1-14.31-1.1H332.33Z"></path> <path class="cls-1" d="M55,203.78h50.63l55,154.1h-44L106.33,325.3H52L41.83,357.88H0Zm42,91.8L79.47,236.8H79L61.2,295.58Z"></path> <path class="cls-1" d="M172.81,203.78h55q32.15,0,47.44,13.76t15.3,36.87a64.15,64.15,0,0,1-3.41,21.79,36.49,36.49,0,0,1-11,15.85q-7.59,6.39-19.48,9.69T227.85,305H213.76v52.84H172.81Zm55,72.2q9.9,0,15.85-5.94t5.94-15.63q0-9.69-5.94-15.63t-15.85-5.95H213.76V276Z"></path> <path class="cls-1" d="M309.52,203.78h41v154.1h-41Z"></path> </g> </g> </svg> 